<?xml version="1.0" encoding="UTF-8" standalone="no"?>
<!-- Created with Inkscape (http://www.inkscape.org/) -->

<svg
   width="40.970734mm"
   height="41.062637mm"
   viewBox="0 0 40.970734 41.062637"
   version="1.1"
   id="svg5"
   inkscape:version="1.1.2 (0a00cf5339, 2022-02-04)"
   sodipodi:docname="colibri.svg"
   xmlns:inkscape="http://www.inkscape.org/namespaces/inkscape"
   xmlns:sodipodi="http://sodipodi.sourceforge.net/DTD/sodipodi-0.dtd"
   xmlns="http://www.w3.org/2000/svg"
   xmlns:svg="http://www.w3.org/2000/svg">
  <sodipodi:namedview
     id="namedview7"
     pagecolor="#ffffff"
     bordercolor="#666666"
     borderopacity="1.0"
     inkscape:pageshadow="2"
     inkscape:pageopacity="0.0"
     inkscape:pagecheckerboard="0"
     inkscape:document-units="mm"
     showgrid="false"
     inkscape:zoom="5.1241864"
     inkscape:cx="83.232725"
     inkscape:cy="77.182985"
     inkscape:window-width="1429"
     inkscape:window-height="938"
     inkscape:window-x="1994"
     inkscape:window-y="27"
     inkscape:window-maximized="1"
     inkscape:current-layer="layer2" />
  <defs
     id="defs2">
    <inkscape:path-effect
       effect="bspline"
       id="path-effect6873"
       is_visible="true"
       lpeversion="1"
       weight="33.333333"
       steps="2"
       helper_size="0"
       apply_no_weight="true"
       apply_with_weight="true"
       only_selected="false" />
    <inkscape:path-effect
       effect="bspline"
       id="path-effect4999"
       is_visible="true"
       lpeversion="1"
       weight="33.333333"
       steps="2"
       helper_size="0"
       apply_no_weight="true"
       apply_with_weight="true"
       only_selected="false" />
    <inkscape:path-effect
       effect="bspline"
       id="path-effect4069"
       is_visible="true"
       lpeversion="1"
       weight="33.333333"
       steps="2"
       helper_size="0"
       apply_no_weight="true"
       apply_with_weight="true"
       only_selected="false" />
    <inkscape:path-effect
       effect="bspline"
       id="path-effect3177"
       is_visible="true"
       lpeversion="1"
       weight="33.333333"
       steps="2"
       helper_size="0"
       apply_no_weight="true"
       apply_with_weight="true"
       only_selected="false" />
    <inkscape:path-effect
       effect="bspline"
       id="path-effect1316"
       is_visible="true"
       lpeversion="1"
       weight="33.333333"
       steps="2"
       helper_size="0"
       apply_no_weight="true"
       apply_with_weight="true"
       only_selected="false" />
    <inkscape:path-effect
       effect="bspline"
       id="path-effect917"
       is_visible="true"
       lpeversion="1"
       weight="33.333333"
       steps="2"
       helper_size="0"
       apply_no_weight="true"
       apply_with_weight="true"
       only_selected="false" />
  </defs>
  <g
     inkscape:groupmode="layer"
     id="layer2"
     inkscape:label="Layer 2"
     style="display:inline"
     transform="translate(-98.649759,-106.0249)">
    <path
       style="fill:#eb3d72;fill-opacity:1;stroke:#000000;stroke-width:0.264583px;stroke-linecap:butt;stroke-linejoin:miter;stroke-opacity:1"
       d="m 120.92312,121.12033 c 2.01136,-2.30081 6.17934,-4.75543 9.1777,-6.44962 2.99836,-1.6942 4.82674,-2.62777 6.19469,-3.8589 1.36795,-1.23114 2.27551,-2.75993 3.18305,-4.28867 -0.0572,2.96494 -0.11446,5.93007 -2.05925,9.41549 -1.94478,3.48541 -5.77689,7.49124 -9.12749,9.54058 -3.3506,2.04934 -6.21988,2.14197 -9.08896,2.23459 -0.14556,-2.14649 -0.2911,-4.29265 1.72026,-6.59347 z"
       id="path915"
       sodipodi:nodetypes="cccccccc"
       inkscape:original-d="m 118.76617,121.27433 c 4.16849,-2.4545 8.33647,-4.90912 12.50442,-7.36414 1.82875,-0.93336 3.65713,-1.86693 5.48536,-2.80082 0.90782,-1.52851 2.72261,-4.58623 2.72261,-4.58623 0,0 -0.1142,5.93008 -0.17169,8.89481 -3.83207,4.00635 -7.66418,8.01218 -11.49677,12.01799 -2.86887,0.0929 -8.60724,0.27786 -8.60724,0.27786 0,0 -0.29086,-4.29267 -0.43669,-6.43947 z"
       inkscape:path-effect="#path-effect917" />
    <path
       style="fill:#03b2dd;fill-opacity:1;stroke:#000000;stroke-width:0.264583px;stroke-linecap:butt;stroke-linejoin:miter;stroke-opacity:1"
       d="m 119.20286,127.7138 c 0.36782,2.12339 0.73569,4.24705 2.11346,5.97313 1.37777,1.72607 3.76505,3.05483 5.6841,4.54684 1.91904,1.49201 3.36964,3.14695 4.49113,4.57624 1.1215,1.42929 1.91359,2.63243 2.7059,3.8359 -2.2e-4,-1.4626 -4.5e-4,-2.9249 -0.51072,-5.91911 -0.51027,-2.99422 -1.53059,-7.5198 -4.02953,-9.94404 -2.49893,-2.42425 -6.47673,-2.74661 -10.45434,-3.06896 z"
       id="path3175"
       inkscape:path-effect="#path-effect3177"
       inkscape:original-d="m 119.20286,127.7138 c 0,0 0.7359,4.24701 1.10346,6.37018 2.38772,1.32911 4.775,2.65787 7.16219,3.98645 1.45097,1.65533 2.90157,3.31027 4.35201,4.96507 0.79259,1.20376 2.37693,3.61041 2.37693,3.61041 0,0 -1.8e-4,-2.9249 -6.7e-4,-4.38779 -1.02013,-4.52558 -2.04045,-9.05116 -3.0611,-13.57728 -3.97743,-0.32209 -11.93282,-0.96704 -11.93282,-0.96704 z"
       sodipodi:nodetypes="cccccccc" />
    <path
       style="fill:#9b3594;fill-opacity:1;stroke:#000000;stroke-width:0.265;stroke-linecap:butt;stroke-linejoin:miter;stroke-miterlimit:4;stroke-dasharray:none;stroke-opacity:1"
       d="m 124.47763,138.1161 c -2.80059,-1.77473 -5.60082,-3.54923 -6.91998,-6.37217 -1.31916,-2.82293 -1.15652,-6.69387 -2.53015,-9.07865 -1.37362,-2.38478 -4.28404,-3.28307 -7.1942,-4.18128 0,0 -0.36694,1.33542 -0.36694,1.33542 1.45318,1.08984 2.90662,2.17988 4.15652,4.88062 1.24989,2.70074 2.29662,7.012 4.40539,9.51645 2.10877,2.50445 5.27889,3.20199 8.44936,3.89961 z"
       id="path4067"
       inkscape:path-effect="#path-effect4069"
       inkscape:original-d="m 124.47763,138.1161 c 0,0 -5.60086,-3.54916 -8.40177,-5.32419 0.16291,-3.8709 0.32554,-7.74184 0.48792,-11.61328 -2.90995,-0.89796 -8.73048,-2.69463 -8.73048,-2.69463 l -0.36694,1.33542 c 0,0 2.90659,2.17993 4.35954,3.26953 1.04705,4.31179 2.09378,8.62305 3.14031,12.93429 3.17079,0.6979 9.51142,2.09286 9.51142,2.09286 z"
       sodipodi:nodetypes="cccccccc" />
    <path
       style="fill:#11da3b;fill-opacity:1;stroke:#000000;stroke-width:0.264583px;stroke-linecap:butt;stroke-linejoin:miter;stroke-opacity:1"
       d="m 118.79888,123.22547 c -0.77483,-0.36044 -1.54932,-0.72072 -2.33065,-1.7982 -0.78133,-1.07749 -1.5689,-2.87205 -2.50931,-3.83199 -0.94042,-0.95994 -2.03373,-1.08484 -3.04434,-1.03031 -1.0106,0.0545 -1.93846,0.28861 -2.86615,0.52266 1.57313,-1.35444 3.14625,-2.70887 4.80212,-2.69998 1.65587,0.009 3.39406,1.38082 4.25911,2.72009 0.86506,1.33927 0.85716,2.64566 0.99328,3.65992 0.13612,1.01425 0.41599,1.73586 0.696,2.45781 0,0 -6e-5,0 -6e-5,0 z"
       id="path4997"
       inkscape:path-effect="#path-effect4999"
       inkscape:original-d="m 118.79888,123.22547 c 0,0 -1.54938,-0.7206 -2.3245,-1.08132 -0.78736,-1.79442 -1.57492,-3.58899 -2.3628,-5.38393 -1.09311,-0.12465 -2.18642,-0.24955 -3.28007,-0.37473 -0.92745,0.23432 -2.78308,0.70214 -2.78308,0.70214 0,0 3.14649,-2.70859 4.71939,-4.06333 1.73857,1.37228 3.47676,2.74421 5.2148,4.11596 -0.008,1.30675 -0.0155,2.61314 -0.0237,3.91936 0.28028,0.72224 0.84002,2.16585 0.84002,2.16585 z"
       sodipodi:nodetypes="cccccccccc" />
    <circle
       style="fill:#000000;fill-opacity:1;stroke:none;stroke-width:0.041229;stroke-linecap:round;stroke-linejoin:round"
       id="path6448"
       cx="111.96269"
       cy="118.47168"
       r="0.95351052" />
    <path
       style="fill:#000001;fill-opacity:1;stroke:#000000;stroke-width:0.264583px;stroke-linecap:butt;stroke-linejoin:round;stroke-opacity:1"
       d="m 107.8333,118.484 -9.051405,-1.98402 8.684465,3.31944 0.36694,-1.33542"
       id="path7448" />
  </g>
</svg>
